<?xml version="1.0" encoding="UTF-8" standalone="no"?>
<!-- Created with Inkscape (http://www.inkscape.org/) -->

<svg
   xmlns:dc="http://purl.org/dc/elements/1.1/"
   xmlns:cc="http://creativecommons.org/ns#"
   xmlns:rdf="http://www.w3.org/1999/02/22-rdf-syntax-ns#"
   xmlns:svg="http://www.w3.org/2000/svg"
   xmlns="http://www.w3.org/2000/svg"
   xmlns:sodipodi="http://sodipodi.sourceforge.net/DTD/sodipodi-0.dtd"
   xmlns:inkscape="http://www.inkscape.org/namespaces/inkscape"
   width="150"
   height="150"
   id="svg2"
   version="1.1"
   inkscape:version="0.48.5 r10040"
   sodipodi:docname="New document 1">
  <defs
     id="defs4" />
  <sodipodi:namedview
     id="base"
     pagecolor="#ffffff"
     bordercolor="#666666"
     borderopacity="1.0"
     inkscape:pageopacity="0.0"
     inkscape:pageshadow="2"
     inkscape:zoom="1"
     inkscape:cx="79.333333"
     inkscape:cy="145.95417"
     inkscape:document-units="px"
     inkscape:current-layer="layer1"
     showgrid="false"
     inkscape:window-width="1095"
     inkscape:window-height="740"
     inkscape:window-x="37"
     inkscape:window-y="31"
     inkscape:window-maximized="0" />
  <metadata
     id="metadata7">
    <rdf:RDF>
      <cc:Work
         rdf:about="">
        <dc:format>image/svg+xml</dc:format>
        <dc:type
           rdf:resource="http://purl.org/dc/dcmitype/StillImage" />
        <dc:title></dc:title>
      </cc:Work>
    </rdf:RDF>
  </metadata>
  <g
     inkscape:label="Layer 1"
     inkscape:groupmode="layer"
     id="layer1"
     transform="translate(0,-902.36218)">
    <path
       sodipodi:type="arc"
       style="fill:#c8c8c8;fill-opacity:1;stroke:none"
       id="path3003"
       sodipodi:cx="17.5"
       sodipodi:cy="77.5"
       sodipodi:rx="5.5"
       sodipodi:ry="6"
       d="m 23,77.5 a 5.5,6 0 1 1 -11,0 5.5,6 0 1 1 11,0 z"
       transform="matrix(0.90909091,0,0,0.83333333,16.090909,897.77885)" />
    <path
       transform="matrix(0.90909091,0,0,0.83333333,7.4242423,933.61218)"
       d="m 23,77.5 a 5.5,6 0 1 1 -11,0 5.5,6 0 1 1 11,0 z"
       sodipodi:ry="6"
       sodipodi:rx="5.5"
       sodipodi:cy="77.5"
       sodipodi:cx="17.5"
       id="path3795"
       style="fill:#c8c8c8;fill-opacity:1;stroke:none"
       sodipodi:type="arc" />
    <path
       sodipodi:type="arc"
       style="fill:#c8c8c8;fill-opacity:1;stroke:none"
       id="path3797"
       sodipodi:cx="17.5"
       sodipodi:cy="77.5"
       sodipodi:rx="5.5"
       sodipodi:ry="6"
       d="m 23,77.5 a 5.5,6 0 1 1 -11,0 5.5,6 0 1 1 11,0 z"
       transform="matrix(0.90909091,0,0,0.83333333,45.590909,937.27885)" />
    <path
       transform="matrix(0.90909091,0,0,0.83333333,69.924242,937.11218)"
       d="m 23,77.5 a 5.5,6 0 1 1 -11,0 5.5,6 0 1 1 11,0 z"
       sodipodi:ry="6"
       sodipodi:rx="5.5"
       sodipodi:cy="77.5"
       sodipodi:cx="17.5"
       id="path3799"
       style="fill:#c8c8c8;fill-opacity:1;stroke:none"
       sodipodi:type="arc" />
    <path
       sodipodi:type="arc"
       style="fill:#c8c8c8;fill-opacity:1;stroke:none"
       id="path3801"
       sodipodi:cx="17.5"
       sodipodi:cy="77.5"
       sodipodi:rx="5.5"
       sodipodi:ry="6"
       d="m 23,77.5 a 5.5,6 0 1 1 -11,0 5.5,6 0 1 1 11,0 z"
       transform="matrix(0.90909091,0,0,0.83333333,88.090909,935.94552)" />
    <path
       transform="matrix(0.90909091,0,0,0.83333333,101.59091,905.77885)"
       d="m 23,77.5 a 5.5,6 0 1 1 -11,0 5.5,6 0 1 1 11,0 z"
       sodipodi:ry="6"
       sodipodi:rx="5.5"
       sodipodi:cy="77.5"
       sodipodi:cx="17.5"
       id="path3803"
       style="fill:#c8c8c8;fill-opacity:1;stroke:none"
       sodipodi:type="arc" />
    <path
       transform="matrix(0.90909091,0,0,0.83333333,80.590909,898.27885)"
       d="m 23,77.5 a 5.5,6 0 1 1 -11,0 5.5,6 0 1 1 11,0 z"
       sodipodi:ry="6"
       sodipodi:rx="5.5"
       sodipodi:cy="77.5"
       sodipodi:cx="17.5"
       id="path3805"
       style="fill:#c8c8c8;fill-opacity:1;stroke:none"
       sodipodi:type="arc" />
    <path
       transform="matrix(0.90909091,0,0,0.83333333,46.590909,897.77885)"
       d="m 23,77.5 a 5.5,6 0 1 1 -11,0 5.5,6 0 1 1 11,0 z"
       sodipodi:ry="6"
       sodipodi:rx="5.5"
       sodipodi:cy="77.5"
       sodipodi:cx="17.5"
       id="path3807"
       style="fill:#c8c8c8;fill-opacity:1;stroke:none"
       sodipodi:type="arc" />
    <path
       transform="matrix(0.90909091,0,0,0.83333333,30.590909,883.27885)"
       d="m 23,77.5 a 5.5,6 0 1 1 -11,0 5.5,6 0 1 1 11,0 z"
       sodipodi:ry="6"
       sodipodi:rx="5.5"
       sodipodi:cy="77.5"
       sodipodi:cx="17.5"
       id="path3809"
       style="fill:#c8c8c8;fill-opacity:1;stroke:none"
       sodipodi:type="arc" />
    <path
       style="fill:none;stroke:#c8c8c8;stroke-width:1px;stroke-linecap:butt;stroke-linejoin:miter;stroke-opacity:1"
       d="M 23.333333,95.166667 31,61.5"
       id="path3811"
       inkscape:connector-curvature="0"
       transform="translate(0,902.36218)"
       sodipodi:nodetypes="cc" />
    <path
       inkscape:connector-curvature="0"
       id="path3813"
       d="M 61,1002.3622 46,947.86218"
       style="fill:none;stroke:#c8c8c8;stroke-width:1px;stroke-linecap:butt;stroke-linejoin:miter;stroke-opacity:1"
       sodipodi:nodetypes="cc" />
    <path
       sodipodi:nodetypes="cc"
       style="fill:none;stroke:#c8c8c8;stroke-width:1px;stroke-linecap:butt;stroke-linejoin:miter;stroke-opacity:1"
       d="M 61,1002.8622 30.5,962.36218"
       id="path3815"
       inkscape:connector-curvature="0" />
    <path
       inkscape:connector-curvature="0"
       id="path3817"
       d="M 61.5,1001.3622 62,962.86218"
       style="fill:none;stroke:#c8c8c8;stroke-width:1px;stroke-linecap:butt;stroke-linejoin:miter;stroke-opacity:1"
       sodipodi:nodetypes="cc" />
    <path
       sodipodi:nodetypes="cc"
       style="fill:none;stroke:#c8c8c8;stroke-width:1px;stroke-linecap:butt;stroke-linejoin:miter;stroke-opacity:1"
       d="m 86.5,1001.8622 -24,-39.50002"
       id="path3832"
       inkscape:connector-curvature="0" />
    <path
       inkscape:connector-curvature="0"
       id="path3834"
       d="M 86.5,1000.8622 96,962.86218"
       style="fill:none;stroke:#c8c8c8;stroke-width:1px;stroke-linecap:butt;stroke-linejoin:miter;stroke-opacity:1"
       sodipodi:nodetypes="cc" />
    <path
       sodipodi:nodetypes="cc"
       style="fill:none;stroke:#c8c8c8;stroke-width:1px;stroke-linecap:butt;stroke-linejoin:miter;stroke-opacity:1"
       d="M 104.33333,999.19553 95.5,962.86218"
       id="path3836"
       inkscape:connector-curvature="0" />
    <path
       inkscape:connector-curvature="0"
       id="path3838"
       d="M 103.66667,1000.8622 116.5,968.69551"
       style="fill:none;stroke:#c8c8c8;stroke-width:1px;stroke-linecap:butt;stroke-linejoin:miter;stroke-opacity:1"
       sodipodi:nodetypes="cc" />
    <path
       sodipodi:nodetypes="cc"
       style="fill:none;stroke:#c8c8c8;stroke-width:1px;stroke-linecap:butt;stroke-linejoin:miter;stroke-opacity:1"
       d="m 86,1001.8622 31.5,-30.50002"
       id="path3840"
       inkscape:connector-curvature="0" />
    <path
       sodipodi:nodetypes="cc"
       style="fill:none;stroke:#c8c8c8;stroke-width:1px;stroke-linecap:butt;stroke-linejoin:miter;stroke-opacity:1"
       d="M 61,1002.3622 96,963.36218"
       id="path3842"
       inkscape:connector-curvature="0" />
    <path
       sodipodi:nodetypes="cc"
       style="fill:none;stroke:#c8c8c8;stroke-width:1px;stroke-linecap:butt;stroke-linejoin:miter;stroke-opacity:1"
       d="M 23.666667,997.02887 60.5,962.86218"
       id="path3844"
       inkscape:connector-curvature="0" />
    <flowRoot
       xml:space="preserve"
       id="flowRoot2985"
       style="font-size:64px;font-style:normal;font-variant:normal;font-weight:normal;font-stretch:normal;text-align:center;line-height:125%;letter-spacing:6.71000433px;word-spacing:0px;text-anchor:middle;fill:#000000;fill-opacity:1;stroke:none;font-family:Consolas;-inkscape-font-specification:Consolas"
       transform="translate(-170.39062,869.86218)"><flowRegion
         id="flowRegion2987"><rect
           id="rect2989"
           width="439"
           height="417"
           x="24"
           y="40"
           style="font-size:64px;font-style:normal;font-variant:normal;font-weight:normal;font-stretch:normal;text-align:center;letter-spacing:6.71000433px;text-anchor:middle;font-family:Consolas;-inkscape-font-specification:Consolas" /></flowRegion><flowPara
         id="flowPara2991" /><flowPara
         id="flowPara2993">LIB</flowPara></flowRoot>    <flowRoot
       xml:space="preserve"
       id="flowRoot2995"
       style="font-size:72px;font-style:normal;font-variant:normal;font-weight:normal;font-stretch:normal;line-height:125%;letter-spacing:14.06998348px;word-spacing:0px;fill:#000000;fill-opacity:1;stroke:none;font-family:consolas;-inkscape-font-specification:consolas"
       transform="translate(-106.51741,864.86214)"><flowRegion
         id="flowRegion2997"><rect
           id="rect2999"
           width="236"
           height="209"
           x="134"
           y="40"
           style="font-size:72px;letter-spacing:14.06998348px;font-family:consolas;-inkscape-font-specification:consolas" /></flowRegion><flowPara
         id="flowPara3001">MQ</flowPara></flowRoot>    <path
       style="fill:none;stroke:#646464;stroke-width:2;stroke-linecap:butt;stroke-linejoin:miter;stroke-miterlimit:4;stroke-opacity:1;stroke-dasharray:4,2;stroke-dashoffset:0"
       d="M 14.25,63.5 43,91.75 81.5,69 132,96.25"
       id="path3848"
       inkscape:connector-curvature="0"
       transform="translate(0,902.36218)"
       sodipodi:nodetypes="cccc" />
  </g>
</svg>
